<?xml version="1.0" encoding="UTF-8"?>
<svg width="993px" height="157px" viewBox="0 0 993 157" version="1.1" xmlns="http://www.w3.org/2000/svg" xmlns:xlink="http://www.w3.org/1999/xlink">
    <title>SBD_Horizontal_Logo_CYMK</title>
    <defs>
        <polygon id="path-1" points="0 0 992.94 0 992.94 156.664 0 156.664"></polygon>
    </defs>
    <g id="SBD_Horizontal_Logo_CYMK" stroke="none" stroke-width="1" fill="none" fill-rule="evenodd">
        <g id="Group-3" transform="translate(0.060000, 0.276000)">
            <mask id="mask-2" fill="white">
                <use xlink:href="#path-1"></use>
            </mask>
            <g id="Clip-2"></g>
            <polyline id="Fill-1" fill="#FBCE28" mask="url(#mask-2)" points="-0.06 156.724 902.48 156.724 992.94 0 -0.06 0 -0.06 156.724"></polyline>
        </g>
        <path d="M171.853,57.036 C168.124,54.209 164.046,52.973 159.072,52.973 C153.845,52.973 149.441,56.287 149.441,60.268 C149.441,62.594 150.848,64.503 154.76,65.836 L161.403,68.079 C168.864,70.562 172.753,74.548 172.753,81.098 C172.753,93.644 162.056,103.928 144.793,103.928 C136.656,103.928 130.602,101.777 125.797,98.701 L131.93,89.819 C136.752,92.647 141.06,94.302 146.857,94.302 C154.181,94.302 158.907,90.486 158.907,84.753 C158.907,81.838 156.912,79.931 152.765,78.533 L146.706,76.455 C140.154,74.221 136.169,71.058 136.169,64.337 C136.169,52.715 147.12,43.254 160.81,43.254 C167.871,43.254 174.602,45.41 178.831,49.06 L171.853,57.036" id="Fill-4" fill="#1C1B19"></path>
        <path d="M202.903,67.822 L195.516,67.822 L191.034,89.153 C190.702,90.555 190.615,91.902 190.615,92.891 C190.615,95.212 191.861,95.966 194.362,95.966 C195.346,95.966 197.258,95.626 198.5,95.129 L198.5,101.86 C195.272,103.097 191.939,103.685 189.047,103.685 C182.657,103.685 178.998,100.531 178.998,96.38 C178.998,94.881 179.164,92.891 179.591,90.896 L184.473,67.822 L180.244,67.822 L181.899,60.181 L186.142,60.181 C186.97,56.03 187.544,53.299 188.712,50.141 L200.417,47.319 C199.161,51.217 197.929,55.874 197.005,60.181 L206.894,60.181 L202.903,67.822" id="Fill-5" fill="#1C1B19"></path>
        <path d="M242.757,72.726 L239.355,88.822 C238.597,92.481 238.928,94.954 240.918,97.133 L231.715,104.011 C229.715,102.687 228.805,100.452 228.478,98.783 C225.315,102.108 221.826,103.845 217.183,103.845 C209.464,103.845 205.487,99.114 205.487,90.311 C205.487,80.11 209.372,71.058 214.443,65.996 C219.086,61.343 224.309,59.362 231.375,59.362 C236.358,59.362 241.911,60.18 245.493,62.258 C244.578,64.824 243.41,69.495 242.757,72.726 M229.88,67.991 C227.131,67.991 225.067,68.157 222.083,71.651 C218.594,75.793 216.847,84.178 216.847,89.819 C216.847,93.644 217.845,95.294 220.258,95.294 C223.743,95.294 227.306,91.727 228.478,88.665 L232.873,68.649 C232.376,68.322 230.878,67.991 229.88,67.991" id="Fill-6" fill="#1C1B19"></path>
        <path d="M264.672,58.773 C265.417,60.18 265.922,63.839 265.752,65.659 C269.31,61.848 273.875,59.278 280.095,59.278 C285.497,59.278 288.655,62.515 288.655,67.659 C288.655,69.493 288.394,71.811 287.994,73.64 L281.856,102.686 L270.892,102.686 L276.799,75.043 C277.116,73.383 277.365,72.137 277.365,71.227 C277.365,69.149 276.455,68.569 274.455,68.569 C271.802,68.569 268.653,70.229 265.168,74.96 L259.265,102.686 L248.31,102.686 L254.374,74.054 C255.367,69.402 255.284,65.747 254.374,62.841 L264.672,58.773" id="Fill-7" fill="#1C1B19"></path>
        <path d="M313.393,53.961 L306.662,85.414 C305.586,90.394 305.255,92.481 305.255,93.644 C305.255,95.211 305.927,96.053 307.412,96.053 C307.834,96.053 308.253,96.053 308.653,95.878 L309.163,102.521 C307.164,103.266 304.681,103.684 302.268,103.684 C296.295,103.684 293.468,100.452 293.468,96.053 C293.468,94.549 294.057,91.382 294.719,88.334 L301.426,56.618 C302.603,51.055 303.26,47.156 302.438,44.334 L314.22,40.762 C314.556,42.674 314.556,48.568 313.393,53.961" id="Fill-8" fill="#1C1B19"></path>
        <path d="M349.163,98.041 C343.439,102.023 337.876,103.843 331.896,103.843 C321.777,103.843 315.81,98.528 315.81,88.249 C315.81,79.446 319.704,70.393 325.354,64.909 C329.569,60.849 334.304,59.277 339.964,59.277 C348.335,59.277 354.39,62.596 354.39,70.899 C354.39,78.944 347.006,85.499 332.902,85.499 C329.997,85.499 327.832,84.916 327.832,84.916 C327.832,84.916 327.418,87.665 327.418,88.737 C327.418,93.554 329.914,95.54 334.562,95.54 C338.373,95.54 342.354,93.885 346.345,91.067 L349.163,98.041 Z M332.815,77.694 C337.637,77.694 343.191,76.039 343.191,71.809 C343.191,69.23 342.032,67.414 338.713,67.414 C334.475,67.414 331.312,69.897 329.661,77.284 C329.661,77.284 331.312,77.694 332.815,77.694 L332.815,77.694 Z" id="Fill-9" fill="#1C1B19"></path>
        <path d="M371.333,59.523 L373.415,84.348 C373.572,86.905 373.742,93.138 373.742,93.138 C373.742,93.138 376.652,85.75 379.47,80.441 L390.177,60.18 L402.12,60.18 L377.479,103.353 C372.832,111.572 369.921,115.131 366.345,117.37 C363.108,119.447 359.219,120.772 355.224,121.264 L352.994,113.798 C355.564,113.223 358.552,112.299 360.46,111.15 C363.862,109.09 365.186,107.173 367.848,102.687 L364.782,102.687 C364.607,99.528 364.202,94.379 363.692,90.734 L359.876,60.847 L371.333,59.523" id="Fill-10" fill="#1C1B19"></path>
        <path d="M432.729,44.994 C441.45,44.994 447.743,49.15 447.743,57.448 C447.743,63.098 444.185,69.566 435.639,72.062 C440.939,73.216 444.268,77.864 444.268,83.257 C444.268,86.906 442.769,92.567 438.866,96.552 C434.632,100.868 429.823,102.685 420.859,102.685 L399.937,102.685 L412.225,44.994 L432.729,44.994 Z M413.558,93.228 L421.107,93.228 C423.521,93.228 425.575,92.567 427.079,91.55 C429.658,89.817 431.474,86.24 431.474,83.004 C431.474,78.945 429.244,77.616 424.095,77.616 L416.868,77.616 L413.558,93.228 Z M418.854,68.081 L425.663,68.081 C428.83,68.081 430.32,67.415 431.736,66.408 C433.552,65.084 435.225,62.762 435.225,59.944 C435.225,56.368 433.63,54.874 428.83,54.874 L421.608,54.874 L418.854,68.081 L418.854,68.081 Z" id="Fill-11" fill="#1C1B19"></path>
        <path d="M470.661,53.961 L463.936,85.414 C462.855,90.394 462.524,92.481 462.524,93.644 C462.524,95.211 463.191,96.053 464.689,96.053 C465.094,96.053 465.517,96.053 465.935,95.878 L466.432,102.521 C464.432,103.266 461.945,103.684 459.527,103.684 C453.564,103.684 450.737,100.452 450.737,96.053 C450.737,94.549 451.316,91.382 451.978,88.334 L458.708,56.618 C459.872,51.055 460.547,47.156 459.702,44.334 L471.489,40.762 C471.82,42.674 471.82,48.568 470.661,53.961" id="Fill-12" fill="#1C1B19"></path>
        <path d="M511.592,72.726 L508.176,88.822 C507.422,92.481 507.767,94.954 509.767,97.133 L500.539,104.011 C498.559,102.687 497.647,100.452 497.308,98.783 C494.154,102.108 490.674,103.845 486.031,103.845 C478.308,103.845 474.313,99.114 474.313,90.311 C474.313,80.11 478.225,71.058 483.295,65.996 C487.934,61.343 493.156,59.362 500.218,59.362 C505.196,59.362 510.75,60.18 514.331,62.258 C513.407,64.824 512.253,69.495 511.592,72.726 M498.729,67.991 C495.979,67.991 493.906,68.157 490.908,71.651 C487.438,75.793 485.695,84.178 485.695,89.819 C485.695,93.644 486.684,95.294 489.097,95.294 C492.582,95.294 496.145,91.727 497.308,88.665 L501.712,68.649 C501.211,68.322 499.722,67.991 498.729,67.991" id="Fill-13" fill="#1C1B19"></path>
        <path d="M547.112,70.98 C545.287,68.902 542.888,67.821 540.81,67.821 C538.805,67.821 537.076,68.649 535.573,70.318 C532.507,73.802 529.688,82.583 529.688,89.153 C529.688,93.557 531.758,95.455 534.746,95.455 C537.812,95.455 540.892,93.722 544.037,91.222 L547.774,98.126 C543.131,101.694 538.396,103.763 532.162,103.763 C522.719,103.763 517.58,98.287 517.58,89.153 C517.58,78.611 522.476,68.98 528.351,64.006 C532.162,60.769 536.4,58.94 542.304,58.94 C546.202,58.94 550.51,60.521 553.58,64.006 L547.112,70.98" id="Fill-14" fill="#1C1B19"></path>
        <path d="M575.668,40.764 C576.238,42.838 576.155,47.899 574.257,56.785 L564.465,102.684 L553.349,102.684 L563.315,56.031 C564.548,50.138 564.723,46.745 564.143,44.336 L575.668,40.764 Z M597.987,60.183 L580.646,78.613 L592.104,102.684 L578.987,102.684 L569.853,78.613 L584.219,60.183 L597.987,60.183 L597.987,60.183 Z" id="Fill-15" fill="#1C1B19"></path>
        <path d="M646.063,74.463 C645.083,80.109 642.743,86.572 639.764,90.733 L649.299,102.685 L634.62,102.685 L631.788,99.026 C627.724,101.863 622.818,103.844 614.765,103.844 C603.239,103.844 596.845,98.124 596.845,90.558 C596.845,83.602 601.653,77.446 610.802,73.64 C607.381,70.477 606.471,67.732 606.471,64.087 C606.471,54.874 615.021,47.403 626.221,47.403 C634.771,47.403 640.173,51.633 640.173,57.696 C640.173,64.087 637.843,68.905 627.37,73.722 L626.29,74.224 L633.939,83.437 C635.438,81.097 636.597,76.04 636.767,74.463 L646.063,74.463 Z M609.055,89.656 C609.055,93.468 611.873,95.711 616.847,95.711 C620.819,95.711 624.064,94.626 626.29,92.732 L615.5,79.773 C611.376,82.011 609.055,85.418 609.055,89.656 L609.055,89.656 Z M628.79,59.195 C628.79,56.786 627.131,55.122 624.644,55.122 C620.984,55.122 617.928,58.193 617.928,61.935 C617.928,63.673 618.663,65.585 621.232,68.569 C625.968,66.656 628.79,62.928 628.79,59.195 L628.79,59.195 Z" id="Fill-16" fill="#1C1B19"></path>
        <path d="M680.357,44.994 C689.975,44.994 695.887,46.069 699.519,50.639 C702.176,54.05 703.914,57.857 703.914,64.67 C703.914,74.136 700.503,86.493 693.391,94.051 C687.313,100.455 681.516,102.685 668.81,102.685 L654.77,102.685 L667.053,44.994 L680.357,44.994 Z M668.644,93.228 L674.372,93.228 C679.347,93.228 683.093,90.484 685.162,87.234 C690.306,79.193 691.396,67.571 691.396,64.5 C691.396,59.195 689.893,54.129 682.183,54.129 L676.933,54.129 L668.644,93.228 L668.644,93.228 Z" id="Fill-17" fill="#1C1B19"></path>
        <path d="M740.185,98.041 C734.475,102.023 728.912,103.843 722.936,103.843 C712.813,103.843 706.827,98.528 706.827,88.249 C706.827,79.446 710.734,70.393 716.38,64.909 C720.604,60.849 725.345,59.277 730.985,59.277 C739.356,59.277 745.421,62.596 745.421,70.899 C745.421,78.944 738.047,85.499 723.924,85.499 C721.019,85.499 718.867,84.916 718.867,84.916 C718.867,84.916 718.453,87.665 718.453,88.737 C718.453,93.554 720.936,95.54 725.593,95.54 C729.418,95.54 733.398,93.885 737.366,91.067 L740.185,98.041 Z M723.841,77.694 C728.659,77.694 734.217,76.039 734.217,71.809 C734.217,69.23 733.059,67.414 729.753,67.414 C725.501,67.414 722.361,69.897 720.688,77.284 C720.688,77.284 722.361,77.694 723.841,77.694 L723.841,77.694 Z" id="Fill-18" fill="#1C1B19"></path>
        <path d="M778.715,70.98 C776.891,68.902 774.477,67.821 772.412,67.821 C770.422,67.821 768.666,68.649 767.189,70.318 C764.11,73.802 761.287,82.583 761.287,89.153 C761.287,93.557 763.352,95.455 766.344,95.455 C769.429,95.455 772.486,93.722 775.658,91.222 L779.382,98.126 C774.734,101.694 770.013,103.763 763.778,103.763 C754.3,103.763 749.155,98.287 749.155,89.153 C749.155,78.611 754.064,68.98 759.954,64.006 C763.778,60.769 768.004,58.94 773.901,58.94 C777.801,58.94 782.107,60.521 785.184,64.006 L778.715,70.98" id="Fill-19" fill="#1C1B19"></path>
        <path d="M807.266,40.764 C807.85,42.838 807.762,47.899 805.854,56.785 L796.058,102.684 L784.937,102.684 L794.899,56.031 C796.146,50.138 796.319,46.745 795.731,44.336 L807.266,40.764 Z M829.585,60.183 L812.259,78.613 L823.715,102.684 L810.594,102.684 L801.45,78.613 L815.826,60.183 L829.585,60.183 L829.585,60.183 Z" id="Fill-20" fill="#1C1B19"></path>
        <path d="M861.725,98.041 C856.001,102.023 850.443,103.843 844.467,103.843 C834.325,103.843 828.34,98.528 828.34,88.249 C828.34,79.446 832.252,70.393 837.893,64.909 C842.145,60.849 846.871,59.277 852.521,59.277 C860.901,59.277 866.938,62.596 866.938,70.899 C866.938,78.944 859.56,85.499 845.445,85.499 C842.536,85.499 840.389,84.916 840.389,84.916 C840.389,84.916 839.975,87.665 839.975,88.737 C839.975,93.554 842.462,95.54 847.11,95.54 C850.939,95.54 854.925,93.885 858.906,91.067 L861.725,98.041 Z M845.372,77.694 C850.186,77.694 855.753,76.039 855.753,71.809 C855.753,69.23 854.594,67.414 851.257,67.414 C847.027,67.414 843.883,69.897 842.214,77.284 C842.214,77.284 843.883,77.694 845.372,77.694 L845.372,77.694 Z" id="Fill-21" fill="#1C1B19"></path>
        <path d="M885.795,58.773 C886.471,60.18 887.133,63.264 886.793,65.659 C890.53,61.848 894.512,59.191 898.672,59.191 C900.244,59.191 900.993,59.361 902.487,60.106 L897.684,69.898 C896.672,69.319 895.675,69.066 894.442,69.066 C892.286,69.066 889.868,70.317 886.388,74.877 L880.49,102.686 L869.364,102.686 L875.336,74.624 C876.49,69.319 876.339,65.586 875.507,62.841 L885.795,58.773" id="Fill-22" fill="#1C1B19"></path>
    </g>
</svg>